<svg width="67" height="67" viewBox="0 0 67 67" fill="none" xmlns="http://www.w3.org/2000/svg">
<path d="M67 4.06445V0H63.4843L0 63.4843V66.6008L0.399245 67H4.06445L67 4.06445Z" fill="#FFC108"/>
<path d="M67 11.6446L11.6446 67H19.2248L67 19.2248V11.6446Z" fill="#FFC108"/>
<path d="M67 26.805L26.805 67H34.3852L67 34.3852V26.805Z" fill="#FFC108"/>
<path d="M67 41.9654L41.9654 67H49.5456L67 49.5456V41.9654Z" fill="#FFC108"/>
<path d="M67 57.1257L57.1257 67H64.7059L67 64.7059V57.1257Z" fill="#FFC108"/>
<path d="M0 55.9041L55.9041 0H48.3239L0 48.3239V55.9041Z" fill="#FFC108"/>
<path d="M0 40.7437L40.7437 0H33.1635L0 33.1635V40.7437Z" fill="#FFC108"/>
<path d="M0 25.5833L25.5833 0H18.0032L0 18.0032V25.5833Z" fill="#FFC108"/>
<path d="M0 10.423L10.423 0H2.84279L0 2.84279V10.423Z" fill="#FFC108"/>
<path d="M63.6914 0.5H66.5V3.85734L3.85734 66.5H0.606347L0.5 66.3937V63.6914L63.6914 0.5ZM12.8517 66.5L66.5 12.8517V19.0177L19.0177 66.5H12.8517ZM28.0121 66.5L66.5 28.0121V34.1781L34.1781 66.5H28.0121ZM43.1725 66.5L66.5 43.1725V49.3385L49.3385 66.5H43.1725ZM64.4988 66.5H58.3328L66.5 58.3328V64.4988L64.4988 66.5ZM54.697 0.5L0.5 54.697V48.531L48.531 0.5H54.697ZM39.5366 0.5L0.5 39.5366V33.3706L33.3706 0.5H39.5366ZM24.3762 0.5L0.5 24.3762V18.2103L18.2103 0.5H24.3762ZM9.21586 0.5L0.5 9.21586V3.04989L3.04989 0.5H9.21586Z" stroke="#FFC108" stroke-opacity="0.8"/>
</svg>
