<svg width="40" height="40" viewBox="0 0 40 40" fill="none" xmlns="http://www.w3.org/2000/svg">
<path d="M34.8333 3.33344H5.16665C4.68042 3.33344 4.2141 3.52659 3.87028 3.87041C3.52647 4.21422 3.33331 4.68054 3.33331 5.16677V34.8334C3.33331 35.0742 3.38073 35.3126 3.47287 35.535C3.565 35.7575 3.70004 35.9596 3.87028 36.1298C4.04052 36.3 4.24263 36.4351 4.46506 36.5272C4.68749 36.6194 4.92589 36.6668 5.16665 36.6668H21.1333V23.7501H16.8V18.7501H21.1333V15.0001C21.0436 14.1197 21.1475 13.2303 21.4378 12.3943C21.7282 11.5583 22.1979 10.796 22.8141 10.1608C23.4303 9.52556 24.1779 9.03284 25.0047 8.71717C25.8314 8.40149 26.7173 8.27052 27.6 8.33344C28.8972 8.32545 30.1938 8.39223 31.4833 8.53344V13.0334H28.8333C26.7333 13.0334 26.3333 14.0334 26.3333 15.4834V18.7001H31.3333L30.6833 23.7001H26.3333V36.6668H34.8333C35.0741 36.6668 35.3125 36.6194 35.5349 36.5272C35.7573 36.4351 35.9594 36.3 36.1297 36.1298C36.2999 35.9596 36.435 35.7575 36.5271 35.535C36.6192 35.3126 36.6666 35.0742 36.6666 34.8334V5.16677C36.6666 4.92601 36.6192 4.68761 36.5271 4.46518C36.435 4.24275 36.2999 4.04065 36.1297 3.87041C35.9594 3.70017 35.7573 3.56512 35.5349 3.47299C35.3125 3.38086 35.0741 3.33344 34.8333 3.33344Z" fill="white"/>
</svg>
