<svg width="40" height="40" viewBox="0 0 40 40" fill="none" xmlns="http://www.w3.org/2000/svg">
<path d="M28.9 9.1001C28.5045 9.1001 28.1178 9.2174 27.7889 9.43716C27.46 9.65693 27.2037 9.96928 27.0523 10.3347C26.9009 10.7002 26.8613 11.1023 26.9385 11.4903C27.0156 11.8782 27.2061 12.2346 27.4858 12.5143C27.7655 12.794 28.1219 12.9845 28.5099 13.0617C28.8978 13.1388 29.3 13.0992 29.6654 12.9479C30.0309 12.7965 30.3432 12.5401 30.563 12.2112C30.7827 11.8823 30.9 11.4957 30.9 11.1001C30.9 10.5697 30.6893 10.061 30.3143 9.68589C29.9392 9.31082 29.4305 9.1001 28.9 9.1001ZM36.5667 13.1334C36.5343 11.7506 36.2753 10.3824 35.8 9.08344C35.3763 7.97199 34.7167 6.96557 33.8667 6.13344C33.0414 5.27915 32.0326 4.62373 30.9167 4.21677C29.6211 3.72704 28.2515 3.46212 26.8667 3.43343C25.1 3.33343 24.5334 3.33344 20 3.33344C15.4667 3.33344 14.9 3.33343 13.1334 3.43343C11.7486 3.46212 10.3789 3.72704 9.08337 4.21677C7.9695 4.62785 6.9616 5.2827 6.13337 6.13344C5.27908 6.95873 4.62367 7.9675 4.21671 9.08344C3.72698 10.379 3.46206 11.7487 3.43337 13.1334C3.33337 14.9001 3.33337 15.4668 3.33337 20.0001C3.33337 24.5334 3.33337 25.1001 3.43337 26.8668C3.46206 28.2515 3.72698 29.6212 4.21671 30.9168C4.62367 32.0327 5.27908 33.0415 6.13337 33.8668C6.9616 34.7175 7.9695 35.3724 9.08337 35.7834C10.3789 36.2732 11.7486 36.5381 13.1334 36.5668C14.9 36.6668 15.4667 36.6668 20 36.6668C24.5334 36.6668 25.1 36.6668 26.8667 36.5668C28.2515 36.5381 29.6211 36.2732 30.9167 35.7834C32.0326 35.3765 33.0414 34.7211 33.8667 33.8668C34.7204 33.0377 35.3806 32.0304 35.8 30.9168C36.2753 29.6178 36.5343 28.2496 36.5667 26.8668C36.5667 25.1001 36.6667 24.5334 36.6667 20.0001C36.6667 15.4668 36.6667 14.9001 36.5667 13.1334ZM33.5667 26.6668C33.5546 27.7247 33.363 28.7729 33 29.7668C32.7339 30.4921 32.3065 31.1475 31.75 31.6834C31.2095 32.2343 30.5554 32.6608 29.8334 32.9334C28.8395 33.2964 27.7913 33.488 26.7334 33.5001C25.0667 33.5834 24.45 33.6001 20.0667 33.6001C15.6834 33.6001 15.0667 33.6001 13.4 33.5001C12.3015 33.5207 11.2077 33.3515 10.1667 33.0001C9.47634 32.7136 8.8523 32.2881 8.33337 31.7501C7.78019 31.2147 7.35811 30.5588 7.10004 29.8334C6.69313 28.8254 6.46745 27.7533 6.43337 26.6668C6.43337 25.0001 6.33337 24.3834 6.33337 20.0001C6.33337 15.6168 6.33337 15.0001 6.43337 13.3334C6.44084 12.2519 6.63829 11.18 7.01671 10.1668C7.31012 9.46329 7.76048 8.8362 8.33337 8.33344C8.83973 7.76038 9.46552 7.30526 10.1667 7.0001C11.1826 6.63351 12.2534 6.4419 13.3334 6.43343C15 6.43343 15.6167 6.33344 20 6.33344C24.3834 6.33344 25 6.33344 26.6667 6.43343C27.7247 6.44557 28.7729 6.63718 29.7667 7.0001C30.5241 7.28119 31.2039 7.73818 31.75 8.33344C32.2962 8.8454 32.723 9.47132 33 10.1668C33.3705 11.1817 33.5622 12.2531 33.5667 13.3334C33.65 15.0001 33.6667 15.6168 33.6667 20.0001C33.6667 24.3834 33.65 25.0001 33.5667 26.6668ZM20 11.4501C18.3097 11.4534 16.6583 11.9576 15.2545 12.8991C13.8506 13.8406 12.7573 15.1771 12.1128 16.7397C11.4682 18.3023 11.3012 20.0209 11.633 21.6783C11.9648 23.3358 12.7804 24.8577 13.9768 26.0517C15.1732 27.2458 16.6967 28.0585 18.3548 28.387C20.0129 28.7156 21.7312 28.5453 23.2925 27.8977C24.8538 27.25 26.1882 26.1542 27.1269 24.7485C28.0657 23.3428 28.5667 21.6904 28.5667 20.0001C28.5689 18.8753 28.3487 17.7611 27.9188 16.7217C27.4888 15.6823 26.8576 14.7381 26.0615 13.9435C25.2653 13.1489 24.32 12.5196 23.2797 12.0917C22.2395 11.6637 21.1249 11.4457 20 11.4501ZM20 25.5501C18.9024 25.5501 17.8293 25.2246 16.9166 24.6148C16.0039 24.0049 15.2926 23.1381 14.8725 22.124C14.4524 21.1099 14.3425 19.9939 14.5567 18.9174C14.7708 17.8408 15.2994 16.8518 16.0756 16.0757C16.8518 15.2995 17.8407 14.7709 18.9173 14.5567C19.9939 14.3426 21.1098 14.4525 22.1239 14.8726C23.1381 15.2926 24.0049 16.004 24.6147 16.9167C25.2245 17.8294 25.55 18.9024 25.55 20.0001C25.55 20.7289 25.4065 21.4506 25.1276 22.124C24.8487 22.7974 24.4398 23.4092 23.9245 23.9245C23.4091 24.4399 22.7973 24.8487 22.1239 25.1276C21.4506 25.4065 20.7289 25.5501 20 25.5501Z" fill="white"/>
</svg>
