<svg width="40" height="40" viewBox="0 0 40 40" fill="none" xmlns="http://www.w3.org/2000/svg">
<path d="M36.6667 9.66674C35.4139 10.2102 34.0891 10.5695 32.7334 10.7334C34.1637 9.87894 35.2355 8.53471 35.75 6.95007C34.406 7.75018 32.9346 8.3139 31.4 8.61674C30.3743 7.50436 29.0083 6.7639 27.5164 6.51149C26.0245 6.25909 24.4909 6.50901 23.1564 7.22206C21.8218 7.93511 20.7616 9.07096 20.1421 10.4515C19.5226 11.832 19.3789 13.3791 19.7334 14.8501C17.0158 14.7126 14.3574 14.005 11.9311 12.7732C9.50482 11.5414 7.36478 9.8129 5.65004 7.70007C5.0486 8.75036 4.73257 9.93978 4.73337 11.1501C4.73124 12.274 5.00707 13.3811 5.5363 14.3727C6.06553 15.3643 6.83174 16.2096 7.76671 16.8334C6.68 16.8038 5.61652 16.5122 4.66671 15.9834V16.0667C4.67485 17.6416 5.2267 19.1652 6.2289 20.38C7.2311 21.5948 8.62213 22.4261 10.1667 22.7334C9.57213 22.9144 8.95483 23.0098 8.33337 23.0167C7.90319 23.0117 7.47408 22.9727 7.05004 22.9001C7.48989 24.2548 8.34108 25.4387 9.48517 26.287C10.6293 27.1354 12.0093 27.606 13.4334 27.6334C11.0287 29.5255 8.05985 30.5582 5.00004 30.5667C4.44293 30.5686 3.88627 30.5352 3.33337 30.4667C6.45742 32.4838 10.0981 33.5546 13.8167 33.5501C16.3829 33.5767 18.9286 33.0918 21.3052 32.1235C23.6819 31.1553 25.8417 29.7232 27.6587 27.9109C29.4757 26.0986 30.9133 23.9424 31.8876 21.5683C32.862 19.1941 33.3534 16.6496 33.3334 14.0834C33.3334 13.8001 33.3334 13.5001 33.3334 13.2001C34.6412 12.2248 35.7692 11.0291 36.6667 9.66674Z" fill="white"/>
</svg>
